<?xml version="1.0" standalone="no"?>
<!DOCTYPE svg PUBLIC "-//W3C//DTD SVG 20010904//EN"
 "http://www.w3.org/TR/2001/REC-SVG-20010904/DTD/svg10.dtd">
<svg version="1.0" xmlns="http://www.w3.org/2000/svg"
 width="300.000000pt" height="169.000000pt" viewBox="0 0 300.000000 169.000000"
 preserveAspectRatio="xMidYMid meet">
<metadata>
Created by potrace 1.10, written by Peter Selinger 2001-2011
</metadata>
<g transform="translate(0.000000,169.000000) scale(0.100000,-0.100000)"
fill="#000000" stroke="none">
<path d="M1010 1483 c-147 -368 -193 -478 -202 -481 -12 -5 -10 -22 3 -22 6 0
87 -43 181 -95 93 -52 171 -95 175 -95 3 0 65 -33 137 -74 72 -41 154 -86 181
-101 28 -15 65 -37 84 -48 29 -18 36 -18 55 -7 11 8 102 61 201 118 99 57 182
107 185 111 3 3 21 15 40 26 19 11 96 54 170 97 74 43 138 79 143 81 5 1 -7
38 -26 82 -37 84 -173 406 -227 538 -24 58 -37 77 -51 77 -25 0 -25 -3 16
-105 35 -87 43 -129 11 -60 -9 19 -23 51 -32 71 -32 69 -18 67 -475 62 l-411
-4 -34 -37 c-19 -20 -34 -35 -34 -33 0 2 7 23 15 46 19 54 19 60 -3 60 -15 0
-36 -43 -102 -207z m1007 100 c63 -154 180 -429 203 -480 l29 -62 -142 -82
c-78 -45 -178 -103 -222 -130 -44 -26 -126 -74 -182 -108 l-101 -60 -107 59
c-59 33 -109 60 -112 60 -3 0 -60 31 -127 69 -157 89 -312 174 -323 177 -2 0
45 117 103 260 58 142 111 274 117 291 l10 33 241 3 c133 1 321 3 419 5 l178
2 16 -37z m-1114 -523 c-5 -37 -2 -43 33 -76 l38 -36 -52 26 c-29 14 -52 31
-52 36 0 11 31 90 35 90 2 0 1 -18 -2 -40z m1407 -37 c0 -7 -23 -24 -51 -39
l-51 -25 37 37 c33 32 37 41 32 73 l-6 36 19 -35 c11 -19 19 -41 20 -47z
m-311 -190 c-44 -30 -240 -144 -274 -160 -18 -8 22 22 71 52 26 17 59 37 73
46 57 36 167 98 175 98 4 1 -16 -15 -45 -36z m-352 -194 c56 27 55 19 -1 -14
l-45 -26 -40 20 c-57 29 -61 44 -5 19 l47 -20 44 21z"/>
<path d="M1566 1500 l-350 -5 -82 -204 c-78 -195 -88 -231 -59 -231 7 0 94
-45 195 -100 190 -105 353 -190 364 -190 3 0 6 8 6 18 0 12 -76 58 -268 161
-147 79 -268 145 -270 147 -2 1 29 83 68 183 l72 180 333 3 334 3 70 -166 c39
-92 71 -169 71 -172 0 -3 -74 -50 -164 -106 l-163 -100 -238 130 c-216 118
-265 139 -265 110 0 -8 218 -133 431 -245 l75 -40 167 103 c92 56 176 110 187
119 21 17 21 18 -62 211 -46 107 -88 195 -93 195 -6 1 -167 -1 -359 -4z"/>
<path d="M453 570 l-33 -29 -34 20 c-83 49 -197 31 -268 -44 -34 -35 -38 -44
-38 -93 0 -51 3 -57 44 -96 l44 -42 -26 -36 c-14 -19 -31 -39 -37 -45 -43 -38
-41 -98 3 -93 27 3 29 8 17 41 -11 26 19 22 87 -15 l59 -31 47 46 c26 26 51
47 55 47 4 0 7 -11 7 -25 0 -24 31 -65 48 -65 20 0 91 72 85 86 -5 13 -8 13
-24 -2 -11 -10 -21 -15 -23 -13 -3 2 -6 82 -8 178 l-3 173 26 21 c15 12 24 28
22 35 -7 18 -14 15 -50 -18z m-139 -56 c26 -10 8 -24 -30 -24 -57 0 -104 -32
-104 -71 0 -15 27 -10 34 6 5 14 56 22 56 9 0 -10 -84 -123 -92 -124 -12 0
-48 58 -53 87 -11 60 55 123 131 123 23 0 49 -3 58 -6z m56 -109 l0 -85 -70 0
c-38 0 -70 2 -70 4 0 3 25 38 55 78 30 40 55 76 55 80 0 5 7 8 15 8 12 0 15
-16 15 -85z m10 -148 c0 -16 -12 -32 -36 -49 l-36 -26 -61 20 c-34 11 -68 22
-76 24 -11 3 -8 10 9 29 22 23 31 25 112 25 86 0 88 -1 88 -23z"/>
<path d="M1087 549 c-36 -19 -40 -19 -62 -5 -14 9 -27 16 -30 16 -11 0 -4 -28
10 -40 12 -10 15 -43 15 -176 0 -98 -4 -165 -10 -169 -22 -14 -8 -25 31 -25
24 0 52 -8 68 -19 27 -19 27 -19 81 7 l55 25 -2 111 c-2 61 -3 116 -3 123 0 7
-11 25 -24 40 l-25 28 -45 -45 -46 -44 0 65 c0 57 3 69 25 89 13 12 22 27 19
31 -7 12 -14 11 -57 -12z m77 -175 c3 -9 6 -56 6 -105 0 -93 -1 -95 -47 -83
-21 6 -23 12 -23 82 0 64 3 79 22 99 25 27 34 29 42 7z"/>
<path d="M1366 529 c-8 -44 -8 -49 7 -49 6 0 22 18 35 40 l23 40 -29 0 c-25 0
-30 -5 -36 -31z"/>
<path d="M842 463 c-44 -60 -52 -83 -27 -83 21 0 22 -177 1 -205 -13 -18 -11
-21 32 -42 45 -22 46 -22 72 -3 37 27 53 47 45 60 -5 8 -11 8 -20 0 -27 -22
-35 1 -35 99 l0 98 30 -5 c27 -4 30 -1 30 22 0 22 -4 26 -30 26 -29 0 -30 2
-30 45 0 61 -17 58 -68 -12z m44 -69 c-5 -13 -10 -14 -18 -6 -6 6 -8 18 -4 28
5 13 10 14 18 6 6 -6 8 -18 4 -28z"/>
<path d="M1513 461 c-46 -63 -52 -81 -28 -81 12 0 15 -18 15 -98 0 -59 -4
-102 -11 -109 -14 -14 -3 -33 17 -33 8 0 26 -7 40 -16 24 -16 26 -16 57 12 17
16 34 30 36 31 2 1 1 10 -3 19 -5 13 -9 14 -21 4 -27 -22 -35 0 -35 96 l0 94
35 0 c31 0 35 3 35 25 0 22 -4 25 -36 25 l-36 0 4 45 c5 63 -17 59 -69 -14z
m44 -65 c-4 -9 -11 -16 -17 -16 -11 0 -14 33 -3 43 11 11 26 -10 20 -27z"/>
<path d="M2924 455 c6 -31 4 -35 -14 -35 -11 0 -39 9 -61 21 -41 20 -41 20
-55 1 -7 -11 -27 -25 -44 -32 -29 -12 -30 -15 -30 -75 0 -59 2 -63 25 -69 42
-11 41 -33 -4 -86 -22 -27 -41 -53 -41 -59 0 -15 21 -13 44 4 25 19 49 19 86
0 27 -14 31 -13 66 10 20 14 43 25 50 25 10 0 14 16 14 63 0 60 -1 63 -36 85
l-35 23 21 27 c75 98 84 132 33 132 -23 0 -25 -3 -19 -35z m-72 -85 c36 0 35
-9 -1 -44 -36 -35 -51 -27 -51 27 0 32 3 38 12 29 7 -7 25 -12 40 -12z m28
-152 c0 -36 -1 -37 -26 -28 -14 6 -36 7 -50 4 -32 -8 -30 0 8 45 27 33 35 37
50 27 12 -7 18 -23 18 -48z"/>
<path d="M576 421 c-22 -22 -33 -41 -28 -45 6 -3 13 -2 17 4 17 28 25 1 25
-89 0 -81 -3 -103 -17 -117 -11 -11 -14 -19 -7 -21 6 -2 28 -12 49 -23 l38
-19 43 30 c24 16 44 33 44 38 0 15 -13 21 -26 10 -8 -6 -21 -9 -29 -5 -21 8
-22 206 -1 206 7 0 20 -10 29 -22 l15 -23 26 24 c26 25 26 31 -9 75 -15 19
-16 19 -45 -9 l-30 -29 -28 27 -28 27 -38 -39z"/>
<path d="M1323 430 c-27 -24 -30 -30 -17 -41 11 -9 14 -38 14 -121 0 -111 7
-141 35 -152 21 -8 99 54 86 67 -7 7 -16 6 -26 -3 -13 -11 -15 0 -15 98 0 79
4 112 13 115 8 3 2 15 -17 36 -17 17 -32 31 -35 31 -3 0 -20 -14 -38 -30z"/>
<path d="M1921 439 c-13 -11 -34 -19 -47 -19 -28 0 -29 -5 -9 -40 21 -36 18
-57 -11 -96 -39 -51 -38 -105 4 -146 l32 -32 39 38 c36 35 40 36 45 18 4 -10
15 -27 26 -37 18 -16 20 -16 59 15 26 21 38 37 34 47 -6 14 -8 14 -18 -1 -7
-9 -15 -16 -19 -16 -3 0 -6 48 -6 108 0 84 4 113 17 131 l16 24 -34 -7 c-24
-4 -45 0 -69 13 -35 18 -36 18 -59 0z m27 -56 c18 -4 22 -12 22 -43 0 -37 -1
-38 -24 -27 -14 7 -32 27 -40 45 -20 41 -20 46 2 37 9 -4 27 -10 40 -12z m22
-148 c0 -36 -4 -45 -22 -51 -29 -9 -48 19 -48 71 0 52 6 58 41 39 25 -13 29
-20 29 -59z"/>
<path d="M2141 426 c-19 -19 -30 -39 -26 -46 5 -8 10 -8 21 1 12 10 14 -4 14
-90 0 -94 -1 -101 -20 -101 -11 0 -20 -7 -20 -15 0 -8 9 -15 20 -15 16 0 20
-7 20 -35 0 -19 -5 -44 -12 -55 -16 -26 -2 -38 25 -21 14 9 22 10 25 3 4 -13
71 -37 79 -29 3 3 -4 18 -16 33 -11 15 -21 40 -21 57 0 30 0 30 21 11 18 -16
23 -16 42 -4 12 7 34 20 50 28 l27 13 0 115 0 114 -34 38 -34 37 -32 -34 -33
-33 -24 31 c-13 17 -28 31 -32 31 -4 0 -22 -15 -40 -34z m149 -141 c3 -55 4
-103 3 -107 -2 -3 -17 -1 -33 5 l-30 11 0 86 c0 88 10 113 40 108 12 -3 16
-25 20 -103z m-80 -110 c10 -12 10 -19 1 -28 -9 -9 -14 -9 -21 3 -22 34 -4 54
20 25z"/>
<path d="M2443 428 c-33 -34 -48 -73 -19 -49 12 11 15 -2 18 -85 3 -92 2 -97
-19 -105 -29 -11 -29 -27 -1 -31 20 -3 23 -8 20 -43 -2 -22 -9 -46 -14 -53
-16 -18 0 -28 22 -15 15 10 26 8 59 -10 43 -23 64 -18 39 10 -17 19 -34 93
-22 93 4 0 15 -7 24 -15 15 -13 22 -12 68 13 l52 27 0 105 c0 110 -5 125 -53
173 -19 19 -20 18 -52 -13 l-33 -32 -29 31 -28 32 -32 -33z m135 -50 c8 -8 12
-47 12 -109 l0 -97 -30 11 -30 11 0 86 c0 78 9 110 30 110 3 0 11 -5 18 -12z
m-73 -213 c0 -26 -21 -30 -28 -6 -2 11 -2 22 1 26 11 10 27 -2 27 -20z"/>
</g>
</svg>
